<svg width="108" height="108" viewBox="0 0 108 108" fill="none" xmlns="http://www.w3.org/2000/svg">
    <path d="M107.5 54C107.5 83.5472 83.5472 107.5 54 107.5C24.4528 107.5 0.5 83.5472 0.5 54C0.5 24.4528 24.4528 0.5 54 0.5C83.5472 0.5 107.5 24.4528 107.5 54Z"
          fill="#366EFF" fill-opacity="0.05" stroke="#366EFF"/>
    <path d="M87.6247 61.2611C87.4337 61.2586 87.2512 61.1816 87.1161 61.0465C86.981 60.9114 86.904 60.7289 86.9015 60.5379V50.1429C86.9015 49.9511 86.9777 49.7671 87.1133 49.6315C87.2489 49.4959 87.4329 49.4197 87.6247 49.4197C87.8165 49.4197 88.0005 49.4959 88.1361 49.6315C88.2717 49.7671 88.3479 49.9511 88.3479 50.1429V60.5475C88.3454 60.7377 88.2681 60.9191 88.1327 61.0527C87.9974 61.1862 87.8149 61.2611 87.6247 61.2611Z"
          fill="#366EFF"/>
    <path d="M87.6247 46.9994C87.4329 46.9994 87.2489 46.9232 87.1133 46.7875C86.9777 46.6519 86.9015 46.468 86.9015 46.2762V44.1451C86.9015 43.9533 86.9777 43.7693 87.1133 43.6337C87.2489 43.4981 87.4329 43.4219 87.6247 43.4219C87.8165 43.4219 88.0005 43.4981 88.1361 43.6337C88.2717 43.7693 88.3479 43.9533 88.3479 44.1451V46.2858C88.3479 46.3803 88.3292 46.4739 88.2927 46.5611C88.2562 46.6483 88.2028 46.7274 88.1355 46.7938C88.0682 46.8602 87.9884 46.9126 87.9007 46.9479C87.813 46.9831 87.7192 47.0007 87.6247 46.9994Z"
          fill="#366EFF"/>
    <path d="M29.0095 36.5657H25.0057C24.5913 36.5657 24.255 36.2294 24.255 35.815C24.255 35.4006 24.5913 35.0642 25.0057 35.0642H29.0095C29.4239 35.0642 29.7603 35.4006 29.7603 35.815C29.7603 36.2294 29.4239 36.5657 29.0095 36.5657Z"
          fill="#366EFF"/>
    <path d="M27.0082 38.5676C26.5938 38.5676 26.2574 38.2313 26.2574 37.8169V33.8131C26.2574 33.3987 26.5938 33.0624 27.0082 33.0624C27.4226 33.0624 27.7589 33.3987 27.7589 33.8131V37.8169C27.7589 38.2313 27.4226 38.5676 27.0082 38.5676Z"
          fill="#366EFF"/>
    <path d="M41.4643 82.9286C41.9966 82.9286 42.4286 83.3606 42.4286 83.8929C42.4286 84.4252 41.9966 84.8572 41.4643 84.8572C40.932 84.8572 40.5 84.4252 40.5 83.8929C40.5 83.3606 40.932 82.9286 41.4643 82.9286Z"
          fill="#366EFF"/>
    <path d="M35.6785 82.9286C36.2108 82.9286 36.6428 83.3606 36.6428 83.8929C36.6428 84.4252 36.2108 84.8572 35.6785 84.8572C35.1463 84.8572 34.7143 84.4252 34.7143 83.8929C34.7143 83.3606 35.1463 82.9286 35.6785 82.9286Z"
          fill="#366EFF"/>
    <path d="M29.8929 82.9286C30.4252 82.9286 30.8572 83.3606 30.8572 83.8929C30.8572 84.4252 30.4252 84.8572 29.8929 84.8572C29.3606 84.8572 28.9286 84.4252 28.9286 83.8929C28.9286 83.3606 29.3606 82.9286 29.8929 82.9286Z"
          fill="#366EFF"/>
    <path d="M53.8475 26.1471L26.7355 48.4207L53.8475 70.7047L80.9596 48.4207L53.8475 26.1471Z" fill="white"/>
    <path d="M53.8477 71.4865C53.6703 71.4715 53.504 71.3939 53.3785 71.2676L26.2664 48.9835C26.1778 48.9097 26.1066 48.8172 26.0579 48.7127C26.0092 48.6081 25.9843 48.494 25.9849 48.3787C25.9864 48.2637 26.0123 48.1504 26.0608 48.0461C26.1093 47.9419 26.1794 47.8491 26.2664 47.7739L53.3785 25.5003C53.5219 25.372 53.7075 25.3011 53.8999 25.3011C54.0923 25.3011 54.2779 25.372 54.4213 25.5003L81.5333 47.7739C81.6204 47.8491 81.6904 47.9419 81.739 48.0461C81.7875 48.1504 81.8134 48.2637 81.8149 48.3787C81.8155 48.494 81.7905 48.6081 81.7418 48.7127C81.6932 48.8172 81.622 48.9097 81.5333 48.9835L54.4213 71.2676C54.3465 71.3424 54.2568 71.4006 54.1579 71.4384C54.0591 71.4761 53.9534 71.4925 53.8477 71.4865ZM27.9661 48.4204L53.8477 69.693L79.7293 48.4204L53.8477 27.1583L27.9661 48.4204Z"
          fill="#366EFF"/>
    <path d="M73.1392 32.4036H34.5566V78.2855H73.1392V32.4036Z" fill="white"/>
    <path d="M62.336 45.9597L49.1554 56.7941V78.2856H73.1392V45.9597H62.336Z" fill="white"/>
    <path d="M62.336 45.9597L49.1554 56.7941V78.2856H73.1392V45.9597H62.336Z" fill="white"/>
    <path d="M73.1912 79.0676H34.6086C34.402 79.0649 34.2047 78.9816 34.0586 78.8356C33.9125 78.6895 33.8292 78.4921 33.8265 78.2855V32.4036C33.832 32.1998 33.9168 32.0062 34.0629 31.864C34.2089 31.7218 34.4048 31.6423 34.6086 31.6423H73.1912C73.3986 31.6423 73.5975 31.7247 73.7442 31.8714C73.8909 32.0181 73.9733 32.217 73.9733 32.4244V78.3064C73.9653 78.5093 73.8797 78.7014 73.7341 78.8431C73.5886 78.9847 73.3942 79.0651 73.1912 79.0676ZM35.3386 77.5243H72.357V33.2065H35.3386V77.5243Z"
          fill="#366EFF"/>
    <path d="M66.361 39.4423H54.1919C53.9844 39.4423 53.7855 39.3599 53.6389 39.2132C53.4922 39.0666 53.4098 38.8677 53.4098 38.6603C53.4098 38.4528 53.4922 38.2539 53.6389 38.1072C53.7855 37.9606 53.9844 37.8782 54.1919 37.8782H66.361C66.5684 37.8782 66.7674 37.9606 66.914 38.1072C67.0607 38.2539 67.1431 38.4528 67.1431 38.6603C67.1431 38.8677 67.0607 39.0666 66.914 39.2132C66.7674 39.3599 66.5684 39.4423 66.361 39.4423Z"
          fill="#366EFF"/>
    <path d="M50.0207 39.4423H41.3344C41.127 39.4423 40.9281 39.3599 40.7814 39.2132C40.6348 39.0666 40.5524 38.8677 40.5524 38.6603C40.5524 38.4528 40.6348 38.2539 40.7814 38.1072C40.9281 37.9606 41.127 37.8782 41.3344 37.8782H50.0207C50.2282 37.8782 50.4271 37.9606 50.5738 38.1072C50.7204 38.2539 50.8028 38.4528 50.8028 38.6603C50.8028 38.8677 50.7204 39.0666 50.5738 39.2132C50.4271 39.3599 50.2282 39.4423 50.0207 39.4423Z"
          fill="#366EFF"/>
    <path d="M66.3608 44.6562H58.3628C58.1553 44.6562 57.9564 44.5738 57.8097 44.4271C57.6631 44.2804 57.5807 44.0815 57.5807 43.8741C57.5807 43.6667 57.6631 43.4678 57.8097 43.3211C57.9564 43.1744 58.1553 43.092 58.3628 43.092H66.3608C66.5682 43.092 66.7672 43.1744 66.9138 43.3211C67.0605 43.4678 67.1429 43.6667 67.1429 43.8741C67.1429 44.0815 67.0605 44.2804 66.9138 44.4271C66.7672 44.5738 66.5682 44.6562 66.3608 44.6562Z"
          fill="#366EFF"/>
    <path d="M54.1918 44.6562H41.3344C41.127 44.6562 40.9281 44.5738 40.7814 44.4271C40.6348 44.2804 40.5524 44.0815 40.5524 43.8741C40.5524 43.6667 40.6348 43.4678 40.7814 43.3211C40.9281 43.1744 41.127 43.092 41.3344 43.092H54.1918C54.3992 43.092 54.5982 43.1744 54.7448 43.3211C54.8915 43.4678 54.9739 43.6667 54.9739 43.8741C54.9739 44.0815 54.8915 44.2804 54.7448 44.4271C54.5982 44.5738 54.3992 44.6562 54.1918 44.6562Z"
          fill="#366EFF"/>
    <path d="M66.361 49.8701H52.1063C51.8989 49.8701 51.6999 49.7876 51.5533 49.641C51.4066 49.4943 51.3242 49.2954 51.3242 49.088C51.3242 48.8806 51.4066 48.6816 51.5533 48.535C51.6999 48.3883 51.8989 48.3059 52.1063 48.3059H66.361C66.5684 48.3059 66.7673 48.3883 66.914 48.535C67.0607 48.6816 67.1431 48.8806 67.1431 49.088C67.1431 49.2954 67.0607 49.4943 66.914 49.641C66.7673 49.7876 66.5684 49.8701 66.361 49.8701Z"
          fill="#366EFF"/>
    <path d="M47.9352 49.8701H41.3344C41.127 49.8701 40.9281 49.7876 40.7814 49.641C40.6348 49.4943 40.5524 49.2954 40.5524 49.088C40.5524 48.8806 40.6348 48.6816 40.7814 48.535C40.9281 48.3883 41.127 48.3059 41.3344 48.3059H47.9352C48.1426 48.3059 48.3415 48.3883 48.4882 48.535C48.6349 48.6816 48.7173 48.8806 48.7173 49.088C48.7173 49.2954 48.6349 49.4943 48.4882 49.641C48.3415 49.7876 48.1426 49.8701 47.9352 49.8701Z"
          fill="#366EFF"/>
    <path d="M66.361 55.0839H59.4057C59.1983 55.0839 58.9994 55.0015 58.8527 54.8548C58.7061 54.7082 58.6237 54.5093 58.6237 54.3019C58.6237 54.0944 58.7061 53.8955 58.8527 53.7488C58.9994 53.6022 59.1983 53.5198 59.4057 53.5198H66.361C66.5684 53.5198 66.7674 53.6022 66.914 53.7488C67.0607 53.8955 67.1431 54.0944 67.1431 54.3019C67.1431 54.5093 67.0607 54.7082 66.914 54.8548C66.7674 55.0015 66.5684 55.0839 66.361 55.0839Z"
          fill="#366EFF"/>
    <path d="M55.2346 55.0839H41.3344C41.127 55.0839 40.9281 55.0015 40.7814 54.8548C40.6348 54.7082 40.5524 54.5093 40.5524 54.3019C40.5524 54.0944 40.6348 53.8955 40.7814 53.7488C40.9281 53.6022 41.127 53.5198 41.3344 53.5198H55.2346C55.442 53.5198 55.6409 53.6022 55.7876 53.7488C55.9343 53.8955 56.0167 54.0944 56.0167 54.3019C56.0167 54.5093 55.9343 54.7082 55.7876 54.8548C55.6409 55.0015 55.442 55.0839 55.2346 55.0839Z"
          fill="#366EFF"/>
    <path d="M60.8031 60.2978H46.8926C46.6851 60.2978 46.4862 60.2154 46.3395 60.0687C46.1929 59.922 46.1105 59.7231 46.1105 59.5157C46.1105 59.3083 46.1929 59.1094 46.3395 58.9627C46.4862 58.816 46.6851 58.7336 46.8926 58.7336H60.8031C61.0105 58.7336 61.2095 58.816 61.3561 58.9627C61.5028 59.1094 61.5852 59.3083 61.5852 59.5157C61.5852 59.7231 61.5028 59.922 61.3561 60.0687C61.2095 60.2154 61.0105 60.2978 60.8031 60.2978Z"
          fill="#366EFF"/>
    <path d="M26.7355 48.4205V78.2855L44.9006 63.353L26.7355 48.4205Z" fill="white"/>
    <path d="M62.7948 63.353L80.9599 78.2855V48.4205L62.7948 63.353Z" fill="white"/>
    <path d="M53.8475 70.7046L44.9006 63.353L26.7355 78.2855H80.9596L62.7945 63.353L53.8475 70.7046Z" fill="white"/>
    <path d="M31.9497 56.8043V73.9996L42.4087 65.4072L31.9497 56.8043Z" fill="white"/>
    <path d="M31.9497 56.8043V73.9996L42.4087 65.4072L31.9497 56.8043Z" fill="white"/>
    <path d="M71.0952 65.1153L80.9598 73.2281V57.0129L71.0952 65.1153Z" fill="white"/>
    <path d="M71.0952 65.1153L80.9598 73.2281V57.0129L71.0952 65.1153Z" fill="white"/>
    <path d="M26.7357 79.0676C26.6195 79.066 26.5053 79.0374 26.402 78.9841C26.2685 78.9225 26.1553 78.824 26.0759 78.7002C25.9964 78.5765 25.954 78.4326 25.9536 78.2855V48.4205C25.954 48.2734 25.9964 48.1295 26.0759 48.0057C26.1553 47.882 26.2685 47.7835 26.402 47.7219C26.5356 47.6566 26.685 47.6307 26.8328 47.6474C26.9805 47.664 27.1205 47.7224 27.2362 47.8157L45.4013 62.7482C45.4892 62.8226 45.5598 62.9152 45.6082 63.0197C45.6566 63.1241 45.6817 63.2379 45.6817 63.353C45.6817 63.4681 45.6566 63.5819 45.6082 63.6863C45.5598 63.7908 45.4892 63.8834 45.4013 63.9578L27.2362 78.8799C27.0971 79.0001 26.9196 79.0666 26.7357 79.0676ZM27.5178 50.0785V76.6275L43.6703 63.353L27.5178 50.0785Z"
          fill="#366EFF"/>
    <path d="M67.9773 67.6073L56.559 76.9922L48.5922 70.4436L39.0613 78.2853H80.9598L67.9773 67.6073Z" fill="white"/>
    <path d="M67.9773 67.6073L56.559 76.9922L48.5922 70.4436L39.0613 78.2853H80.9598L67.9773 67.6073Z" fill="white"/>
    <path d="M80.96 79.0676C80.7761 79.0667 80.5986 79.0001 80.4595 78.8799L62.2944 63.9682C62.2066 63.8938 62.136 63.8012 62.0875 63.6968C62.0391 63.5923 62.014 63.4786 62.014 63.3634C62.014 63.2483 62.0391 63.1345 62.0875 63.0301C62.136 62.9256 62.2066 62.833 62.2944 62.7586L80.4908 47.8157C80.6065 47.7224 80.7465 47.664 80.8942 47.6474C81.042 47.6307 81.1914 47.6566 81.325 47.7219C81.4586 47.7835 81.5717 47.882 81.6512 48.0057C81.7306 48.1295 81.773 48.2734 81.7734 48.4205V78.2855C81.773 78.4326 81.7306 78.5765 81.6512 78.7003C81.5717 78.824 81.4586 78.9225 81.325 78.9841C81.2123 79.0423 81.0868 79.071 80.96 79.0676ZM64.0254 63.353L80.1779 76.6275V50.0785L64.0254 63.353Z"
          fill="#366EFF"/>
    <path d="M80.9597 79.0676H26.7356C26.5737 79.0667 26.4159 79.0163 26.2836 78.9231C26.1512 78.8299 26.0506 78.6984 25.9952 78.5462C25.9429 78.3946 25.9379 78.2307 25.9807 78.0762C26.0235 77.9217 26.1122 77.7838 26.235 77.6807L44.4001 62.7482C44.5435 62.62 44.7291 62.5491 44.9215 62.5491C45.1139 62.5491 45.2995 62.62 45.4429 62.7482L53.8894 69.6931L62.3358 62.7482C62.4792 62.62 62.6648 62.5491 62.8572 62.5491C63.0496 62.5491 63.2352 62.62 63.3786 62.7482L81.5437 77.6807C81.6665 77.7838 81.7552 77.9217 81.798 78.0762C81.8408 78.2307 81.8358 78.3946 81.7835 78.5462C81.7239 78.7125 81.6105 78.8541 81.4613 78.9486C81.312 79.043 81.1355 79.0849 80.9597 79.0676ZM28.915 77.5243H78.7803L62.7633 64.3645L54.3169 71.3094C54.1735 71.4376 53.9879 71.5085 53.7955 71.5085C53.6031 71.5085 53.4175 71.4376 53.2741 71.3094L44.8277 64.3645L28.915 77.5243Z"
          fill="#366EFF"/>
    <path d="M52.1524 84.7799H48.1485C47.7341 84.7799 47.3978 84.4436 47.3978 84.0292C47.3978 83.6148 47.7341 83.2785 48.1485 83.2785H52.1524C52.5668 83.2785 52.9031 83.6148 52.9031 84.0292C52.9031 84.4436 52.5668 84.7799 52.1524 84.7799Z"
          fill="#366EFF"/>
    <path d="M50.1511 86.782C49.7367 86.782 49.4004 86.4457 49.4004 86.0313V82.0275C49.4004 81.6131 49.7367 81.2767 50.1511 81.2767C50.5655 81.2767 50.9018 81.6131 50.9018 82.0275V86.0313C50.9018 86.4457 50.5655 86.782 50.1511 86.782Z"
          fill="#366EFF"/>
</svg>
