<?xml version="1.0" encoding="utf-8"?>
<!-- Generator: Adobe Illustrator 26.1.0, SVG Export Plug-In . SVG Version: 6.00 Build 0)  -->
<svg version="1.1" id="Layer_1" xmlns="http://www.w3.org/2000/svg" x="0px"
     y="0px"
     viewBox="0 0 26.8 20.3" style="enable-background:new 0 0 26.8 20.3;" xml:space="preserve">
<path d="M26.4,8.9C24.7,6.9,20,2,13.4,2c-2.3,0-4.3,0.6-6.1,1.4L3.6,0L2.3,1.4l3.3,3C3.2,5.9,1.4,7.8,0.4,8.9
	c-0.6,0.7-0.6,1.7,0,2.4c1.7,2.1,6.3,6.9,13,6.9c2.3,0,4.3-0.6,6.1-1.4l3.8,3.4l1.2-1.4l-3.3-3c2.5-1.5,4.3-3.5,5.2-4.6
	C27,10.7,27,9.6,26.4,8.9z M13.4,16.4c-5.9,0-10-4.4-11.6-6.2c0,0,0-0.1,0-0.1C2.7,9,4.5,7,7.1,5.6l4.2,3.8
	c-0.2,0.1-0.5,0.2-0.8,0.2c-0.5,0-0.9-0.2-1.3-0.4c-0.1,0.3-0.1,0.7-0.1,1c0,2.4,1.9,4.3,4.3,4.3c0.9,0,1.8-0.3,2.5-0.8l2.1,1.9
	C16.6,16.1,15.1,16.4,13.4,16.4z M25,10.2c-0.9,1.1-2.7,3-5.2,4.4l-2.6-2.4c0.4-0.6,0.6-1.4,0.6-2.2c0-2.4-1.9-4.3-4.3-4.3
	c-0.6,0-1.1,0.1-1.6,0.3c0.4,0.4,0.6,0.9,0.6,1.5c0,0.2,0,0.3-0.1,0.4L8.8,4.8c1.4-0.6,2.9-0.9,4.6-0.9c5.9,0,10,4.4,11.6,6.2
	C25,10.1,25,10.2,25,10.2z"/>
</svg>
