<?xml version="1.0" encoding="utf-8"?>
<!-- Generator: Adobe Illustrator 26.1.0, SVG Export Plug-In . SVG Version: 6.00 Build 0)  -->
<svg version="1.1" id="Layer_1" xmlns="http://www.w3.org/2000/svg" x="0px"
     y="0px"
     viewBox="0 0 26.8 20.3" style="enable-background:new 0 0 26.8 20.3;" xml:space="preserve">
<g>
	<path d="M26.4,8.9C24.7,6.9,20,2,13.4,2S2.1,6.9,0.4,8.9c-0.6,0.7-0.6,1.7,0,2.5c1.7,2.1,6.3,6.9,13,6.9s11.3-4.8,13-6.9
		C27,10.7,27,9.6,26.4,8.9z M25,10.2c-1.5,1.9-5.7,6.2-11.6,6.2s-10-4.4-11.6-6.2c0,0,0-0.1,0-0.1c1.5-1.9,5.7-6.2,11.6-6.2
		s10,4.3,11.6,6.2C25,10.1,25,10.2,25,10.2z"/>
    <path d="M13.4,5.8c-0.6,0-1.1,0.1-1.6,0.3c0.4,0.4,0.6,0.9,0.6,1.5c0,1.1-0.9,2-2,2c-0.5,0-0.9-0.2-1.3-0.4c-0.1,0.3-0.1,0.7-0.1,1
		c0,2.4,1.9,4.3,4.3,4.3s4.3-1.9,4.3-4.3C17.7,7.8,15.8,5.8,13.4,5.8z"/>
</g>
</svg>
